<svg width="24px" height="24px" viewBox="0 0 20 20" version="1.1" xmlns="http://www.w3.org/2000/svg" fill="#808080" stroke="#808080"><g id="SVGRepo_bgCarrier" stroke-width="0"></g><g id="SVGRepo_tracerCarrier" stroke-linecap="round" stroke-linejoin="round"></g><g id="SVGRepo_iconCarrier"> <g id="layer1"> <path d="M 7.5 0 C 3.3637867 0 0 3.3637867 0 7.5 C 0 11.636213 3.3637867 15 7.5 15 C 9.3884719 15 11.109883 14.292492 12.429688 13.136719 L 19.146484 19.853516 A 0.50083746 0.50083746 0 1 0 19.853516 19.146484 L 13.136719 12.429688 C 14.292492 11.109883 15 9.3884719 15 7.5 C 15 3.3637867 11.636213 0 7.5 0 z M 7.5 1 C 11.095773 1 14 3.9042268 14 7.5 C 14 11.095773 11.095773 14 7.5 14 C 3.9042268 14 1 11.095773 1 7.5 C 1 3.9042268 3.9042268 1 7.5 1 z " style="fill:#808080; fill-opacity:1; stroke:none; stroke-width:0px;"></path> </g> </g></svg>
